<svg width="22.000000" height="22.000000" viewBox="0 0 22 22" fill="none" xmlns="http://www.w3.org/2000/svg" xmlns:xlink="http://www.w3.org/1999/xlink">
	<desc>
			Created with Pixso.
	</desc>
	<defs/>
	<path id="Vector" d="M19 -0.5C20.65 -0.5 22 0.84 22 2.5L22 18.5C22 20.15 20.65 21.5 19 21.5L3 21.5C1.34 21.5 0 20.15 0 18.5L0 2.5C0 0.84 1.34 -0.5 3 -0.5L19 -0.5ZM19 1.5C19.55 1.5 20 1.94 20 2.5L20 18.5C20 19.05 19.55 19.5 19 19.5L14 19.5L14 12.5L16.07 12.5C16.5 12.5 16.88 12.22 17.02 11.81L17.46 10.48C17.62 10 17.26 9.5 16.75 9.5L14 9.5L14 7.5C14 7 14.5 6.5 15 6.5L17 6.5C17.55 6.5 18 6.05 18 5.5L18 4.81C18 4.49 17.79 4.2 17.48 4.11C16.17 3.77 15 3.77 15 3.77C12.5 3.77 11 5.5 11 7L11 9.5L9 9.5C8.44 9.5 8 9.94 8 10.5L8 11.5C8 12.05 8.44 12.5 9 12.5L11 12.5L11 19.5L3 19.5C2.44 19.5 2 19.05 2 18.5L2 2.5C2 1.94 2.44 1.5 3 1.5L19 1.5Z" fill="#0F0F0F" fill-opacity="1.000000" fill-rule="evenodd"/>
</svg>
