<svg width="22.000000" height="18.000000" viewBox="0 0 22 18" fill="none" xmlns="http://www.w3.org/2000/svg" xmlns:xlink="http://www.w3.org/1999/xlink">
	<desc>
			Created with Pixso.
	</desc>
	<defs/>
	<path id="Vector" d="M18.78 0.41C19.13 0.33 19.37 0.25 19.57 0.16C19.85 0.04 20.08 -0.1 20.44 -0.34C20.75 -0.54 21.14 -0.56 21.47 -0.39C21.79 -0.21 22 0.13 22 0.5C22 1.58 21.86 2.46 21.55 3.24C21.29 3.9 20.92 4.43 20.48 4.91C20.29 8.28 19.32 10.92 17.83 12.92C16.29 14.99 14.23 16.32 12.07 17.07C9.91 17.81 7.63 17.97 5.59 17.72C3.56 17.47 1.69 16.8 0.38 15.78C0.02 15.51 -0.1 15.02 0.07 14.6C0.25 14.19 0.69 13.94 1.14 14.01C2.42 14.19 3.66 13.9 4.68 13.48C4.48 13.37 4.29 13.25 4.11 13.13C3.19 12.49 2.44 11.62 2.1 10.94C1.96 10.66 1.96 10.34 2.1 10.06C2.17 9.91 2.27 9.79 2.4 9.69C1.04 8.58 0.5 7.03 0.5 6C0.5 5.69 0.64 5.4 0.88 5.21C0.98 5.13 1.1 5.07 1.22 5.03C1.12 4.74 1.04 4.44 0.98 4.15C0.71 2.86 0.74 1.41 1.02 0.25C1.12 -0.14 1.45 -0.44 1.86 -0.5C2.26 -0.55 2.66 -0.36 2.86 0C3.94 1.86 5.93 3 7.78 3.68C8.65 4 9.45 4.2 10.05 4.33C10.18 3.11 10.53 2.1 11.05 1.3C11.74 0.24 12.7 -0.38 13.74 -0.66C15.52 -1.14 17.5 -0.59 18.78 0.41ZM9.74 6.3C9.06 6.17 8.12 5.93 7.09 5.56C5.73 5.06 4.16 4.29 2.84 3.09C2.86 3.31 2.89 3.53 2.94 3.74C3.16 4.81 3.57 5.41 3.94 5.6C4.4 5.83 4.61 6.36 4.43 6.84C4.19 7.49 3.56 7.54 2.99 7.4C3.45 8.09 4.28 8.78 5.66 9.01C6.14 9.09 6.49 9.5 6.5 9.98C6.5 10.46 6.16 10.88 5.69 10.98L4.82 11.15C4.95 11.27 5.1 11.38 5.25 11.49C5.95 11.97 6.65 12.18 7.25 12.02C7.7 11.91 8.18 12.13 8.39 12.54C8.6 12.96 8.49 13.46 8.14 13.76C7.49 14.3 6.74 14.73 5.99 15.09C5.63 15.25 5.24 15.42 4.81 15.56C5.14 15.64 5.48 15.69 5.84 15.74C7.61 15.95 9.58 15.81 11.42 15.17C13.26 14.54 14.95 13.43 16.22 11.73C17.49 10.02 18.38 7.66 18.5 4.46C18.51 4.21 18.61 3.97 18.79 3.79C19.24 3.34 19.61 2.82 19.79 2.21C19.47 2.31 19.11 2.4 18.68 2.48C18.36 2.54 18.02 2.44 17.79 2.2C17.02 1.44 15.51 0.94 14.26 1.27C13.66 1.43 13.13 1.78 12.72 2.39C12.31 3.02 12 4.01 12 5.5C12 5.78 11.88 6.05 11.67 6.24C11.17 6.69 10.33 6.42 9.74 6.3Z" fill="#0F0F0F" fill-opacity="1.000000" fill-rule="evenodd"/>
</svg>
